<svg width="1063" height="791" viewBox="0 0 1063 791" fill="none" xmlns="http://www.w3.org/2000/svg">
<g clip-path="url(#clip0_82_488)">
<path d="M510.148 64.4334C510.148 55.9874 503.292 49.1406 494.834 49.1406C486.377 49.1406 479.521 55.9874 479.521 64.4334C479.521 72.8794 486.377 79.7262 494.834 79.7262C503.292 79.7262 510.148 72.8794 510.148 64.4334Z" fill="white"/>
<path d="M607.85 44.2595C607.815 32.5318 603.134 21.2944 594.83 13.0017C586.526 4.70889 575.273 0.0347032 563.529 0C551.785 0.0347032 540.532 4.70889 532.228 13.0017C523.924 21.2944 519.243 32.5318 519.208 44.2595V108.931C519.208 108.931 607.842 99.0723 607.85 44.2668V44.2595Z" fill="white"/>
<path d="M448.483 130.162C448.51 138.319 451.767 146.134 457.544 151.902C463.321 157.669 471.147 160.92 479.316 160.945C487.487 160.922 495.317 157.67 501.095 151.899C506.872 146.128 510.127 138.308 510.148 130.148V85.1719C510.148 85.1719 448.483 92.0271 448.483 130.162ZM479.316 138.289C477.712 138.291 476.143 137.817 474.809 136.928C473.474 136.039 472.434 134.775 471.819 133.295C471.204 131.816 471.042 130.187 471.354 128.616C471.666 127.045 472.438 125.601 473.572 124.468C474.706 123.335 476.15 122.563 477.724 122.25C479.297 121.937 480.928 122.097 482.41 122.709C483.892 123.322 485.159 124.36 486.05 125.692C486.941 127.024 487.417 128.59 487.417 130.191C487.411 132.336 486.556 134.391 485.038 135.908C483.52 137.426 481.463 138.281 479.316 138.289Z" fill="white"/>
<path d="M524.998 141.755C523.394 140.903 522.057 139.626 521.134 138.064C520.217 136.44 519.736 134.608 519.736 132.744C519.736 130.88 520.217 129.047 521.134 127.423C522.065 125.861 523.406 124.582 525.012 123.725C526.706 122.82 528.602 122.36 530.523 122.388C532.074 122.367 533.612 122.66 535.046 123.25C536.377 123.804 537.559 124.659 538.5 125.75L536.085 128.023C535.409 127.267 534.578 126.666 533.649 126.26C532.719 125.854 531.713 125.652 530.699 125.669C529.402 125.647 528.122 125.959 526.981 126.576C525.908 127.158 525.021 128.029 524.42 129.09C523.813 130.212 523.495 131.468 523.495 132.744C523.495 134.02 523.813 135.275 524.42 136.398C525.023 137.46 525.909 138.333 526.981 138.919C528.123 139.532 529.403 139.844 530.699 139.826C531.716 139.841 532.725 139.635 533.655 139.222C534.585 138.809 535.414 138.2 536.085 137.436L538.5 139.753C537.559 140.849 536.37 141.705 535.031 142.252C533.592 142.841 532.049 143.134 530.494 143.114C528.576 143.133 526.685 142.665 524.998 141.755Z" fill="white"/>
<path d="M545.54 141.754C543.93 140.897 542.586 139.615 541.654 138.048C540.729 136.433 540.242 134.604 540.242 132.742C540.242 130.881 540.729 129.052 541.654 127.436C542.584 125.866 543.928 124.581 545.54 123.724C547.261 122.845 549.166 122.387 551.099 122.387C553.031 122.387 554.936 122.845 556.657 123.724C558.269 124.578 559.615 125.857 560.55 127.422C561.472 129.044 561.956 130.877 561.956 132.742C561.956 134.607 561.472 136.44 560.55 138.063C559.615 139.626 558.269 140.902 556.657 141.754C554.936 142.632 553.031 143.091 551.099 143.091C549.166 143.091 547.261 142.632 545.54 141.754ZM554.732 138.911C555.795 138.315 556.672 137.438 557.264 136.375C557.87 135.258 558.187 134.008 558.187 132.739C558.187 131.469 557.87 130.219 557.264 129.103C556.673 128.041 555.796 127.165 554.732 126.574C553.615 125.979 552.368 125.668 551.102 125.668C549.836 125.668 548.59 125.979 547.472 126.574C546.409 127.165 545.532 128.041 544.94 129.103C544.335 130.219 544.018 131.469 544.018 132.739C544.018 134.008 544.335 135.258 544.94 136.375C545.533 137.438 546.41 138.315 547.472 138.911C548.59 139.506 549.836 139.817 551.102 139.817C552.368 139.817 553.615 139.506 554.732 138.911Z" fill="white"/>
<path d="M584.453 142.806V129.461L577.866 140.504H576.198L569.611 129.637V142.792H566.04V122.672H569.121L577.127 136.017L584.987 122.672H588.068V142.806H584.453Z" fill="white"/>
<path d="M606.298 123.533C607.515 124.046 608.552 124.908 609.277 126.01C609.953 127.17 610.309 128.488 610.309 129.829C610.309 131.171 609.953 132.488 609.277 133.648C608.554 134.753 607.517 135.619 606.298 136.133C604.854 136.738 603.298 137.032 601.732 136.995H597.18V142.842H593.44V122.67H601.732C603.298 122.637 604.853 122.931 606.298 123.533ZM605.274 132.793C605.674 132.41 605.992 131.95 606.209 131.442C606.427 130.933 606.539 130.386 606.539 129.833C606.539 129.28 606.427 128.732 606.209 128.224C605.992 127.715 605.674 127.255 605.274 126.873C604.192 126.109 602.878 125.742 601.556 125.835H597.165V133.83H601.556C602.878 133.923 604.192 133.556 605.274 132.793Z" fill="white"/>
<path d="M626.124 138.144H616.076L614.085 142.806H610.221L619.289 122.672H622.948L632.052 142.806H628.129L626.124 138.144ZM624.887 135.22L621.082 126.45L617.313 135.22H624.887Z" fill="white"/>
<path d="M652.529 122.672V142.806H649.448L638.332 129.176V142.806H634.621V122.672H637.702L648.819 136.309V122.672H652.529Z" fill="white"/>
<path d="M666.647 135.703V142.806H662.914V135.761L654.996 122.672H658.999L664.905 132.48L670.862 122.672H674.521L666.647 135.703Z" fill="white"/>
<path d="M83.4743 677.134L84.594 675.205L107.691 635.264L87.9386 601.098L43.9692 677.134L87.9386 753.178L107.691 719.011L84.594 679.063L83.4743 677.134Z" fill="white"/>
<path d="M60.3774 713.23L43.9693 741.608L6.68908 677.134L43.9693 612.66L60.3774 641.045L63.7219 635.264L43.9693 601.098L0 677.134L43.9693 753.178L63.7219 719.011L60.3774 713.23Z" fill="white"/>
<path d="M130.905 667.847L130.935 667.869V655.605L103.212 703.556L106.733 709.644L130.905 667.847Z" fill="white"/>
<path d="M130.906 651.081L130.935 651.103V638.84L98.3604 695.173L101.888 701.261L130.906 651.081Z" fill="white"/>
<path d="M92.1905 684.495L130.905 617.543L130.934 617.565V602.766L87.9385 677.136L92.1905 684.495Z" fill="white"/>
<path d="M130.905 634.308L130.934 634.33V622.066L93.5151 686.789L97.0353 692.877L130.905 634.308Z" fill="white"/>
<path d="M132.867 602.766V751.506L175.87 677.136L132.867 602.766Z" fill="white"/>
<path d="M130.905 684.613L130.935 684.635V672.371L108.057 711.939L111.585 718.034L130.905 684.613Z" fill="white"/>
<path d="M130.905 701.386L130.935 701.408V689.145L112.909 720.322L116.429 726.417L130.905 701.386Z" fill="white"/>
<path d="M130.935 735.543L126.324 743.524L130.935 751.504V735.543Z" fill="white"/>
<path d="M125 741.232L130.906 731.022L130.935 731.044V722.676L122.599 737.095L125 741.232Z" fill="white"/>
<path d="M130.905 718.152L130.934 718.174V705.91L117.754 728.712L121.274 734.8L130.905 718.152Z" fill="white"/>
<path d="M46.1651 782.282C46.9401 783.187 47.3566 784.344 47.3361 785.535C47.3661 786.279 47.2307 787.021 46.9397 787.707C46.6486 788.393 46.2092 789.007 45.6528 789.503C44.5258 790.507 42.8987 790.994 40.7714 790.965H33.2261V770.691H40.6543C42.6889 770.691 44.2331 771.137 45.2869 772.043C45.8161 772.5 46.2341 773.071 46.5093 773.713C46.7845 774.355 46.9095 775.051 46.875 775.749C46.9292 776.898 46.5536 778.026 45.8212 778.913C45.1232 779.717 44.1745 780.263 43.128 780.463C44.3181 780.707 45.3894 781.349 46.1651 782.282ZM35.8461 779.615H40.2372C41.2885 779.678 42.3274 779.361 43.1646 778.723C43.5104 778.407 43.7817 778.018 43.9589 777.585C44.136 777.151 44.2147 776.684 44.1891 776.216C44.2118 775.76 44.133 775.305 43.9583 774.883C43.7837 774.461 43.5176 774.083 43.1792 773.776C42.2945 773.115 41.1995 772.798 40.0981 772.884H35.8388L35.8461 779.615ZM43.4866 787.866C43.869 787.537 44.1708 787.125 44.3687 786.661C44.5667 786.197 44.6554 785.695 44.6282 785.191C44.653 784.687 44.5601 784.185 44.3568 783.723C44.1536 783.261 43.8457 782.853 43.4573 782.531C42.5268 781.838 41.381 781.497 40.2225 781.566H35.8315V788.816H40.2664C41.4187 788.891 42.56 788.554 43.4866 787.866Z" fill="white"/>
<path d="M67.1468 791L61.8482 782.72H58.994V791H56.374V770.727H63.0558C65.3635 770.727 67.0907 771.277 68.2373 772.378C68.8173 772.947 69.271 773.632 69.5685 774.387C69.8661 775.143 70.001 775.952 69.9644 776.763C70.0358 778.218 69.543 779.645 68.5885 780.746C67.5184 781.826 66.1006 782.494 64.5853 782.632L70.1181 791H67.1468ZM58.994 780.819H62.7996C65.7709 780.819 67.2639 779.511 67.2639 776.909C67.2639 774.308 65.8002 772.999 62.7996 772.999H58.994V780.819Z" fill="white"/>
<path d="M90.8146 786.306H81.8861L80.1882 790.998H77.3706L84.8867 771.098H87.8141L95.3008 790.998H92.5125L90.8146 786.306ZM90.0828 784.267L86.365 774.036L82.6545 784.267H90.0828Z" fill="white"/>
<path d="M119.525 791H116.905L106.367 774.98V791H103.783V770.727H106.403L116.942 786.805V770.727H119.525V791Z" fill="white"/>
<path d="M145.36 786.214C144.527 787.737 143.251 788.97 141.7 789.752C139.905 790.628 137.924 791.057 135.926 791.001H129.493V770.728H135.941C137.935 770.671 139.915 771.089 141.715 771.948C143.272 772.707 144.551 773.934 145.374 775.456C146.188 777.133 146.611 778.972 146.611 780.835C146.611 782.699 146.188 784.538 145.374 786.214H145.36ZM141.817 786.602C143.218 785.237 143.918 783.32 143.918 780.85C143.918 778.38 143.225 776.458 141.839 775.084C140.442 773.71 138.414 773.023 135.743 773.023H132.113V788.641H135.736C138.385 788.641 140.42 787.961 141.839 786.602H141.817Z" fill="white"/>
<path d="M1016.09 1.55859H930.858L888.242 75.2709L930.858 148.976H1016.09L1058.7 75.2709L1016.09 1.55859ZM1012.33 141.353L1012 141.909H934.941L896.417 75.2709L934.941 8.62579H935.585L944.324 23.7322L953.625 7.65378H954.855L944.931 24.8065L949.615 32.9042L964.252 7.65378H965.884L950.471 34.3147L954.862 41.8789L974.622 7.65378H977.074L956.033 44.0129L959.992 50.8755L984.978 7.66839H988.242L961.632 53.7112L965.24 59.9525L995.458 7.68301H999.563L967.296 63.4898L970.443 68.9345L1005.86 7.68301H1010.76L972.895 73.1733L975.925 78.4208L1013.86 12.7989L1017.13 18.4336L979.189 84.0555L1012.33 141.353Z" fill="white"/>
<path d="M900.347 174.216C900.801 174.836 901.032 175.59 901.006 176.357C901.028 176.886 900.916 177.413 900.679 177.887C900.443 178.362 900.089 178.768 899.652 179.068C898.465 179.781 897.089 180.115 895.707 180.026H888.967V166.498H895.319C896.606 166.426 897.884 166.753 898.978 167.433C899.393 167.721 899.729 168.108 899.955 168.559C900.181 169.009 900.291 169.509 900.274 170.013C900.286 170.639 900.126 171.255 899.813 171.797C899.505 172.305 899.062 172.718 898.532 172.988C899.248 173.202 899.882 173.631 900.347 174.216ZM891.484 168.471V172.198H895.048C895.753 172.238 896.455 172.073 897.068 171.723C897.301 171.578 897.491 171.373 897.619 171.131C897.748 170.888 897.81 170.616 897.8 170.342C897.81 170.065 897.748 169.79 897.62 169.544C897.492 169.298 897.302 169.089 897.068 168.939C896.454 168.592 895.753 168.429 895.048 168.471H891.484ZM898.473 176.101C898.473 174.8 897.498 174.15 895.546 174.15H891.484V178.052H895.546C897.503 178.052 898.478 177.402 898.473 176.101Z" fill="white"/>
<path d="M916.433 180.026L913.667 176.065C913.491 176.075 913.315 176.075 913.14 176.065H910.08V180.004H907.57V166.498H913.14C914.191 166.473 915.236 166.67 916.206 167.076C917.026 167.419 917.725 167.999 918.211 168.742C918.674 169.532 918.914 170.431 918.906 171.346C918.899 172.261 918.643 173.157 918.167 173.938C917.64 174.695 916.891 175.269 916.023 175.583L919.141 180.026H916.433ZM915.525 169.319C914.796 168.806 913.912 168.561 913.023 168.625H910.095V174.019H913.023C913.917 174.076 914.803 173.817 915.525 173.288C915.811 173.041 916.036 172.732 916.183 172.385C916.33 172.038 916.396 171.662 916.374 171.285C916.393 170.915 916.326 170.545 916.179 170.204C916.032 169.863 915.808 169.56 915.525 169.319Z" fill="white"/>
<path d="M934.37 176.9H927.601L926.262 180.028H923.671L929.767 166.5H932.233L938.352 180.028H935.724L934.37 176.9ZM933.544 174.927L930.989 168.985L928.45 174.897L933.544 174.927Z" fill="white"/>
<path d="M955.99 166.5V180.028H953.918L946.454 170.87V180.028H943.943V166.5H946.014L953.487 175.657V166.5H955.99Z" fill="white"/>
<path d="M963.505 166.498H969.426C970.758 166.471 972.076 166.759 973.276 167.338C974.356 167.864 975.263 168.688 975.888 169.713C976.498 170.797 976.818 172.019 976.818 173.262C976.818 174.504 976.498 175.726 975.888 176.81C975.263 177.835 974.356 178.659 973.276 179.185C972.076 179.764 970.758 180.052 969.426 180.026H963.505V166.498ZM969.309 177.899C970.215 177.918 971.113 177.723 971.929 177.329C972.659 176.974 973.265 176.409 973.671 175.706C974.074 174.954 974.285 174.115 974.285 173.262C974.285 172.409 974.074 171.569 973.671 170.817C973.265 170.115 972.659 169.55 971.929 169.195C971.113 168.8 970.215 168.605 969.309 168.624H966.016V177.899H969.309Z" fill="white"/>
<path d="M1004.61 166.5V180.028H1002.54L995.07 170.87V180.028H992.574V166.5H994.645L1002.11 175.657V166.5H1004.61Z" fill="white"/>
<path d="M1020.9 176.9H1014.13L1012.8 180.028H1010.2L1016.3 166.5H1018.77L1024.89 180.028H1022.25L1020.9 176.9ZM1020.08 174.927L1017.52 169.014L1014.98 174.927H1020.08Z" fill="white"/>
<path d="M1042.93 180.028V171.06L1038.46 178.486H1037.34L1032.88 171.177V180.028H1030.48V166.5H1032.56L1037.94 175.467L1043.23 166.5H1045.29V180.028H1042.93Z" fill="white"/>
<path d="M1063 177.923V180.028H1052.84V166.5H1062.73V168.605H1055.36V172.12H1061.89V174.188H1055.36V177.923H1063Z" fill="white"/>
<path d="M48.7266 3.64844L75.1535 30.039H148.865V103.649L175.285 130.032V3.64844H48.7266Z" fill="white"/>
<path d="M26.5293 30.0391V152.177H148.865V103.649L75.1532 30.0391H26.5293ZM125.563 134.337H45.8866V52.1761H49.502V130.734H125.563V134.337Z" fill="white"/>
<path d="M36.3799 179.576C36.4853 179.579 36.5852 179.624 36.658 179.7L37.3899 180.504C36.8244 181.162 36.1195 181.687 35.3261 182.039C34.4018 182.433 33.4032 182.622 32.3987 182.594C31.4654 182.607 30.5393 182.43 29.6762 182.076C28.8865 181.743 28.1777 181.244 27.5978 180.614C27.0091 179.964 26.5562 179.204 26.2658 178.377C25.941 177.455 25.78 176.483 25.7901 175.505C25.7785 174.525 25.9497 173.551 26.2951 172.633C26.6176 171.798 27.1026 171.036 27.7222 170.389C28.345 169.756 29.0926 169.258 29.9177 168.928C30.8201 168.577 31.7817 168.403 32.75 168.416C33.6507 168.394 34.5468 168.553 35.3846 168.884C36.1113 169.194 36.7776 169.629 37.3533 170.17L36.7458 171.033C36.7044 171.095 36.6523 171.149 36.5922 171.193C36.5153 171.24 36.4255 171.26 36.336 171.252C36.2418 171.247 36.1506 171.217 36.0726 171.164L35.7432 170.938C35.6115 170.843 35.4578 170.748 35.2822 170.645C35.0851 170.532 34.8796 170.434 34.6674 170.353C34.395 170.258 34.1162 170.182 33.8331 170.126C33.473 170.064 33.108 170.035 32.7426 170.039C32.0435 170.029 31.3494 170.158 30.7008 170.419C30.0994 170.664 29.5578 171.035 29.1127 171.508C28.6506 172.002 28.2967 172.587 28.0735 173.225C27.8162 173.955 27.6898 174.724 27.7002 175.498C27.6878 176.284 27.8141 177.065 28.0735 177.807C28.2969 178.439 28.6398 179.022 29.0834 179.525C29.5126 179.984 30.0338 180.347 30.613 180.592C31.2144 180.838 31.8587 180.962 32.5085 180.957C32.8806 180.961 33.2525 180.937 33.6209 180.884C33.9325 180.839 34.239 180.763 34.5357 180.658C34.8113 180.557 35.0741 180.425 35.3187 180.263C35.5769 180.095 35.8216 179.906 36.0506 179.7C36.1415 179.62 36.2587 179.576 36.3799 179.576Z" fill="white"/>
<path d="M57.5819 175.516C57.5908 176.491 57.4222 177.459 57.0842 178.374C56.7763 179.205 56.3034 179.966 55.6937 180.61C55.0738 181.247 54.3254 181.746 53.4981 182.072C52.611 182.422 51.6638 182.596 50.7098 182.584C49.7557 182.598 48.8082 182.424 47.9215 182.072C47.1069 181.742 46.3712 181.244 45.7625 180.61C45.1529 179.966 44.6799 179.205 44.372 178.374C44.034 177.459 43.8654 176.491 43.8744 175.516C43.8654 174.542 44.034 173.573 44.372 172.659C44.6805 171.825 45.1533 171.063 45.7625 170.415C46.3717 169.782 47.1072 169.284 47.9215 168.953C48.8066 168.595 49.7549 168.419 50.7098 168.435C51.6646 168.42 52.6126 168.597 53.4981 168.953C54.3251 169.28 55.0733 169.779 55.6937 170.415C56.3029 171.063 56.7758 171.825 57.0842 172.659C57.4222 173.573 57.5908 174.542 57.5819 175.516ZM55.6498 175.516C55.6631 174.738 55.5468 173.962 55.3058 173.222C55.0958 172.591 54.7597 172.009 54.3178 171.511C53.8853 171.046 53.3556 170.682 52.7663 170.444C52.1217 170.188 51.4328 170.061 50.7391 170.072C50.0454 170.062 49.3566 170.189 48.7119 170.444C48.1232 170.69 47.5942 171.059 47.1604 171.526C46.716 172.022 46.3795 172.604 46.1724 173.236C45.9289 173.976 45.8102 174.752 45.8211 175.531C45.8102 176.308 45.9289 177.081 46.1724 177.819C46.3795 178.451 46.716 179.033 47.1604 179.529C47.5929 179.994 48.1226 180.358 48.7119 180.596C49.3566 180.851 50.0454 180.978 50.7391 180.968C51.4328 180.979 52.1217 180.852 52.7663 180.596C53.3576 180.362 53.888 179.997 54.3178 179.529C54.7597 179.031 55.0958 178.449 55.3058 177.819C55.5484 177.076 55.6647 176.298 55.6498 175.516Z" fill="white"/>
<path d="M72.0428 177.914L72.2404 178.433C72.3063 178.257 72.3721 178.082 72.4453 177.914C72.5153 177.743 72.5959 177.577 72.6868 177.417L77.378 168.902C77.4315 168.784 77.5247 168.689 77.6414 168.632C77.7678 168.598 77.8985 168.583 78.0293 168.588H79.4125V182.474H77.7658V172.257C77.7658 172.125 77.7658 171.979 77.7658 171.826C77.7658 171.672 77.7658 171.512 77.7658 171.351L73.0454 180.011C72.9867 180.142 72.8909 180.252 72.7699 180.329C72.6489 180.405 72.5081 180.445 72.3648 180.442H72.094C71.952 180.444 71.8127 180.403 71.6932 180.327C71.5736 180.25 71.479 180.141 71.4207 180.011L66.5613 171.322C66.5613 171.49 66.5613 171.65 66.6052 171.811C66.6491 171.972 66.6052 172.125 66.6052 172.257V182.438H64.9951V168.552H66.3783C66.5091 168.547 66.6398 168.562 66.7662 168.596C66.88 168.656 66.972 168.751 67.0297 168.866L71.8159 177.395C71.9079 177.56 71.9839 177.734 72.0428 177.914Z" fill="white"/>
<path d="M89.688 177.256V182.438H87.8218V168.552H91.9128C92.6869 168.539 93.4587 168.64 94.2035 168.851C94.7946 169.027 95.3428 169.323 95.8135 169.721C96.2357 170.088 96.5622 170.552 96.7649 171.073C96.9826 171.637 97.0894 172.238 97.0796 172.842C97.0882 173.448 96.9737 174.05 96.743 174.61C96.5207 175.155 96.175 175.64 95.733 176.028C95.2609 176.437 94.7107 176.745 94.1157 176.935C93.4053 177.156 92.6643 177.265 91.9201 177.256H89.688ZM89.688 175.794H91.8835C92.3654 175.805 92.8456 175.733 93.3033 175.582C93.6851 175.46 94.0367 175.258 94.3352 174.991C94.6094 174.736 94.8242 174.424 94.9646 174.077C95.1078 173.704 95.1798 173.307 95.1768 172.908C95.1973 172.524 95.1346 172.141 94.9932 171.784C94.8517 171.427 94.6348 171.105 94.3572 170.839C93.6526 170.297 92.7705 170.036 91.8835 170.109H89.688V175.794Z" fill="white"/>
<path d="M114.366 182.441H112.902C112.754 182.448 112.608 182.401 112.492 182.309C112.388 182.226 112.308 182.118 112.258 181.995L110.963 178.648H104.742L103.447 181.995C103.395 182.115 103.315 182.221 103.212 182.302C103.096 182.394 102.951 182.443 102.803 182.441H101.339L106.886 168.555H108.789L114.366 182.441ZM105.276 177.325H110.458L108.262 171.69C108.097 171.265 107.958 170.831 107.845 170.389C107.779 170.652 107.706 170.893 107.64 171.12C107.574 171.346 107.501 171.537 107.442 171.705L105.276 177.325Z" fill="white"/>
<path d="M122.291 168.649C122.399 168.717 122.493 168.804 122.57 168.905L130.62 179.342C130.62 179.171 130.605 179.01 130.576 178.859C130.576 178.698 130.576 178.545 130.576 178.399V168.591H132.223V182.477H131.271C131.142 182.479 131.014 182.452 130.898 182.396C130.783 182.33 130.683 182.24 130.605 182.133L122.555 171.712C122.555 171.872 122.555 172.026 122.555 172.179C122.555 172.333 122.555 172.479 122.555 172.603V182.477H120.952V168.591H121.926C122.05 168.585 122.175 168.605 122.291 168.649Z" fill="white"/>
<path d="M145.769 176.93V182.441H143.896V176.93L138.817 168.591H140.464C140.606 168.581 140.748 168.625 140.859 168.716C140.961 168.803 141.048 168.906 141.115 169.023L144.284 174.409C144.405 174.615 144.515 174.827 144.613 175.045C144.701 175.242 144.774 175.439 144.847 175.637C144.92 175.432 144.994 175.235 145.082 175.037C145.172 174.821 145.277 174.611 145.396 174.409L148.565 169.023C148.63 168.915 148.709 168.817 148.799 168.73C148.908 168.634 149.05 168.585 149.194 168.591H150.856L145.769 176.93Z" fill="white"/>
<path d="M458.875 473.445C459.278 473.452 459.68 473.418 460.075 473.343C460.372 473.283 460.661 473.193 460.939 473.072C461.157 472.978 461.364 472.858 461.554 472.714C461.722 472.59 461.868 472.473 462 472.364C462.122 472.267 462.249 472.176 462.381 472.093C462.493 472.024 462.622 471.989 462.754 471.991C462.867 471.987 462.98 472.009 463.083 472.057C463.16 472.092 463.228 472.144 463.281 472.21L464.701 473.92C463.94 474.842 462.976 475.575 461.883 476.062C460.715 476.567 459.452 476.816 458.18 476.792C457.128 476.814 456.084 476.607 455.121 476.186C454.26 475.803 453.495 475.233 452.881 474.52C452.255 473.783 451.785 472.928 451.498 472.005C451.178 470.991 451.02 469.933 451.03 468.87C451.024 467.873 451.142 466.879 451.381 465.91C451.602 465.01 451.933 464.141 452.369 463.323C452.782 462.547 453.296 461.83 453.899 461.189C454.484 460.566 455.151 460.025 455.882 459.581C457.373 458.677 459.085 458.201 460.829 458.207C461.456 458.203 462.082 458.267 462.695 458.397C463.225 458.517 463.738 458.699 464.225 458.938C465.085 459.373 465.824 460.013 466.377 460.802L464.957 462.453C464.854 462.571 464.736 462.674 464.605 462.76C464.449 462.861 464.264 462.91 464.079 462.899C463.943 462.902 463.81 462.869 463.691 462.804C463.574 462.731 463.456 462.651 463.332 462.556L462.93 462.241C462.762 462.114 462.58 462.006 462.388 461.92C462.153 461.815 461.908 461.734 461.656 461.679C461.322 461.607 460.981 461.573 460.639 461.576C459.895 461.569 459.161 461.737 458.495 462.066C457.823 462.396 457.234 462.87 456.767 463.455C456.252 464.107 455.864 464.851 455.626 465.647C455.333 466.593 455.192 467.58 455.209 468.571C455.198 469.273 455.294 469.973 455.494 470.646C455.653 471.203 455.913 471.726 456.262 472.188C456.568 472.592 456.964 472.919 457.419 473.142C457.874 473.366 458.375 473.48 458.882 473.474L458.875 473.445Z" fill="white"/>
<path d="M489.781 466.333C489.784 467.284 489.668 468.232 489.437 469.154C489.215 470.027 488.886 470.869 488.457 471.661C488.042 472.428 487.531 473.138 486.934 473.773C486.342 474.4 485.668 474.943 484.929 475.389C484.174 475.84 483.362 476.189 482.514 476.426C481.623 476.672 480.702 476.795 479.777 476.792C478.669 476.809 477.57 476.595 476.55 476.163C475.624 475.776 474.789 475.202 474.098 474.475C473.422 473.728 472.902 472.853 472.568 471.902C472.211 470.878 472.032 469.8 472.041 468.716C472.036 467.762 472.151 466.812 472.385 465.888C472.602 465.012 472.929 464.167 473.359 463.374C473.773 462.605 474.288 461.895 474.888 461.261C475.484 460.636 476.161 460.093 476.901 459.646C477.656 459.195 478.468 458.846 479.316 458.608C480.21 458.362 481.133 458.239 482.06 458.243C483.166 458.227 484.263 458.441 485.28 458.872C486.203 459.272 487.031 459.862 487.71 460.604C488.383 461.355 488.9 462.232 489.232 463.184C489.592 464.195 489.778 465.26 489.781 466.333ZM485.602 466.428C485.611 465.739 485.52 465.052 485.332 464.389C485.174 463.82 484.908 463.287 484.549 462.818C484.21 462.386 483.773 462.041 483.275 461.81C482.744 461.562 482.163 461.44 481.577 461.451C480.8 461.439 480.031 461.617 479.338 461.97C478.674 462.323 478.101 462.823 477.662 463.432C477.169 464.11 476.807 464.873 476.593 465.683C476.34 466.637 476.217 467.62 476.228 468.606C476.219 469.293 476.308 469.977 476.491 470.638C476.643 471.204 476.904 471.735 477.259 472.202C477.592 472.632 478.024 472.976 478.518 473.203C479.054 473.452 479.64 473.574 480.231 473.561C481.008 473.575 481.776 473.399 482.47 473.05C483.14 472.7 483.719 472.2 484.161 471.588C484.648 470.91 485.009 470.15 485.229 469.344C485.487 468.397 485.613 467.418 485.602 466.436V466.428Z" fill="white"/>
<path d="M506.804 470.212C506.936 469.934 507.075 469.664 507.221 469.401L507.675 468.604L513.252 459.03C513.315 458.905 513.404 458.793 513.512 458.703C513.62 458.612 513.746 458.545 513.881 458.504C514.119 458.438 514.365 458.404 514.613 458.402H517.811L515.557 476.592H511.985L513.259 466.003C513.259 465.783 513.325 465.535 513.376 465.272C513.427 465.009 513.493 464.716 513.559 464.431L508.085 473.815C507.934 474.084 507.707 474.302 507.433 474.444C507.164 474.582 506.865 474.653 506.562 474.648H506.014C505.721 474.659 505.431 474.585 505.179 474.436C504.941 474.302 504.765 474.078 504.689 473.815L501.483 464.402C501.483 464.687 501.483 464.957 501.44 465.228C501.396 465.498 501.44 465.732 501.388 465.959L500.137 476.607H496.536L498.776 458.395H502.34C502.462 458.394 502.583 458.414 502.698 458.453C502.803 458.49 502.896 458.553 502.969 458.636C503.055 458.741 503.117 458.863 503.152 458.994L506.35 468.626C506.526 469.123 506.68 469.664 506.804 470.212Z" fill="white"/>
<path d="M529.228 470.463L528.496 476.595H524.449L526.644 458.404H532.645C533.588 458.383 534.527 458.517 535.426 458.799C536.132 459.021 536.781 459.392 537.329 459.888C537.818 460.337 538.191 460.896 538.42 461.518C538.658 462.169 538.777 462.857 538.771 463.55C538.778 464.487 538.625 465.419 538.317 466.305C538.024 467.132 537.546 467.882 536.919 468.497C536.248 469.155 535.438 469.655 534.548 469.959C533.453 470.332 532.302 470.51 531.145 470.485L529.228 470.463ZM530.355 461.437L529.623 467.408H531.584C532.084 467.421 532.582 467.334 533.048 467.153C533.423 466.992 533.753 466.741 534.007 466.422C534.263 466.091 534.445 465.71 534.541 465.304C534.657 464.825 534.711 464.334 534.702 463.842C534.704 463.507 534.655 463.175 534.556 462.855C534.467 462.568 534.317 462.304 534.116 462.081C533.909 461.864 533.66 461.693 533.385 461.576C533.041 461.449 532.676 461.387 532.309 461.394L530.355 461.437Z" fill="white"/>
<path d="M558.853 476.592H555.699C555.399 476.606 555.103 476.521 554.857 476.351C554.652 476.194 554.515 475.963 554.476 475.708L553.913 472.434H547.729L546.375 475.708C546.264 475.963 546.078 476.177 545.841 476.322C545.58 476.501 545.271 476.595 544.955 476.592H541.75L550.451 458.395H554.601L558.853 476.592ZM548.863 469.664H553.437L552.552 464.468C552.478 464.039 552.398 463.601 552.31 463.152C552.222 462.706 552.149 462.304 552.091 461.939C552.022 462.134 551.934 462.361 551.827 462.619C551.717 462.867 551.615 463.116 551.505 463.35C551.395 463.583 551.3 463.817 551.205 464.029C551.11 464.241 551.044 464.387 551 464.49L548.863 469.664Z" fill="white"/>
<path d="M570.972 458.397C571.083 458.41 571.192 458.439 571.294 458.485C571.392 458.53 571.479 458.595 571.55 458.675C571.636 458.777 571.712 458.887 571.777 459.004L578.166 470.237C578.166 469.944 578.166 469.667 578.239 469.396C578.313 469.126 578.298 468.885 578.327 468.665L579.55 458.397H583.143L580.896 476.588H578.752C578.484 476.598 578.217 476.55 577.969 476.449C577.736 476.333 577.546 476.146 577.427 475.915L571.067 464.69C571.067 464.923 571.067 465.15 571.009 465.362C570.95 465.574 570.972 465.786 570.958 465.976L569.706 476.588H566.105L568.374 458.397H570.526C570.675 458.388 570.824 458.388 570.972 458.397Z" fill="white"/>
<path d="M599.244 469.63L598.38 476.595H594.304L595.167 469.666L590.461 458.397H594.121C594.415 458.378 594.706 458.467 594.94 458.645C595.14 458.817 595.289 459.039 595.372 459.289L597.121 464.792C597.238 465.157 597.341 465.523 597.436 465.852C597.531 466.18 597.612 466.524 597.685 466.838C597.838 466.524 598.014 466.195 598.204 465.859C598.395 465.523 598.6 465.128 598.819 464.792L601.922 459.289C602.059 459.047 602.247 458.838 602.471 458.675C602.722 458.488 603.029 458.39 603.342 458.397H606.723L599.244 469.63Z" fill="white"/>
<path d="M621.118 439.144L564.378 337.945L528.854 401.309L550.071 439.144H621.118Z" fill="white"/>
<path d="M542.606 439.146L525.122 407.969L507.638 439.146H542.606Z" fill="white"/>
<path d="M523.329 295.918L443.572 439.148H499.39L551.234 345.688L523.329 295.918Z" fill="white"/>
<path d="M914.809 786.726C914.867 786.727 914.924 786.74 914.977 786.764C915.03 786.788 915.077 786.822 915.116 786.865L915.928 787.749C915.303 788.472 914.526 789.048 913.652 789.437C912.634 789.866 911.537 790.072 910.432 790.044C909.408 790.058 908.393 789.864 907.446 789.474C906.578 789.112 905.796 788.569 905.156 787.881C904.51 787.164 904.012 786.327 903.692 785.418C903.337 784.403 903.161 783.335 903.172 782.261C903.162 781.185 903.35 780.117 903.729 779.111C904.079 778.189 904.615 777.348 905.302 776.64C905.989 775.944 906.814 775.399 907.724 775.04C908.715 774.653 909.771 774.461 910.835 774.477C911.765 774.444 912.693 774.597 913.563 774.929C914.433 775.26 915.227 775.763 915.899 776.407L915.233 777.357C915.182 777.422 915.123 777.481 915.058 777.532C914.976 777.581 914.882 777.604 914.787 777.598C914.681 777.593 914.58 777.557 914.494 777.496C914.384 777.43 914.267 777.349 914.121 777.247L913.623 776.925C913.406 776.801 913.178 776.696 912.942 776.611C912.646 776.501 912.339 776.418 912.028 776.363C911.632 776.288 911.23 776.254 910.827 776.26C910.061 776.25 909.3 776.392 908.588 776.677C907.924 776.948 907.326 777.357 906.832 777.876C906.324 778.421 905.936 779.066 905.69 779.768C905.408 780.569 905.269 781.412 905.28 782.261C905.267 783.126 905.406 783.986 905.69 784.804C905.932 785.501 906.313 786.143 906.81 786.689C907.276 787.199 907.848 787.601 908.486 787.866C909.147 788.139 909.856 788.275 910.571 788.268C910.98 788.27 911.388 788.243 911.793 788.188C912.135 788.139 912.471 788.056 912.796 787.939C913.1 787.83 913.39 787.685 913.66 787.508C913.942 787.32 914.211 787.112 914.465 786.887C914.554 786.791 914.678 786.734 914.809 786.726Z" fill="white"/>
<path d="M938.125 782.26C938.136 783.332 937.953 784.396 937.584 785.403C937.241 786.318 936.719 787.156 936.047 787.866C935.385 788.558 934.584 789.103 933.697 789.466C931.722 790.216 929.54 790.216 927.565 789.466C926.67 789.105 925.862 788.56 925.193 787.866C924.521 787.156 923.999 786.318 923.657 785.403C922.934 783.372 922.934 781.155 923.657 779.125C923.999 778.207 924.521 777.368 925.193 776.655C925.862 775.958 926.67 775.411 927.565 775.047C929.538 774.286 931.724 774.286 933.697 775.047C934.595 775.409 935.406 775.957 936.076 776.655C936.748 777.368 937.27 778.207 937.613 779.125C937.972 780.13 938.146 781.193 938.125 782.26ZM936.003 782.26C936.016 781.407 935.888 780.557 935.622 779.746C935.396 779.05 935.027 778.408 934.539 777.861C934.069 777.341 933.485 776.936 932.834 776.677C931.4 776.121 929.81 776.121 928.377 776.677C927.724 776.938 927.139 777.343 926.664 777.861C926.174 778.407 925.803 779.049 925.574 779.746C925.067 781.384 925.067 783.136 925.574 784.774C925.805 785.47 926.176 786.112 926.664 786.66C927.141 787.174 927.726 787.575 928.377 787.836C929.812 788.382 931.398 788.382 932.834 787.836C933.483 787.577 934.066 787.175 934.539 786.66C935.025 786.112 935.394 785.47 935.622 784.774C935.888 783.963 936.017 783.114 936.003 782.26Z" fill="white"/>
<path d="M954.028 784.905C954.101 785.091 954.174 785.281 954.248 785.476C954.313 785.271 954.394 785.081 954.467 784.905C954.54 784.73 954.635 784.54 954.738 784.357L959.861 774.995C959.919 774.866 960.02 774.761 960.146 774.696C960.284 774.656 960.427 774.638 960.571 774.644H962.093V789.875H960.285V778.679C960.285 778.533 960.285 778.372 960.285 778.204C960.285 778.036 960.285 777.86 960.285 777.685L955.06 787.186C954.995 787.326 954.892 787.444 954.763 787.529C954.633 787.613 954.482 787.658 954.328 787.661H954.028C953.874 787.658 953.723 787.613 953.594 787.529C953.464 787.444 953.361 787.326 953.296 787.186L947.954 777.626C947.954 777.816 947.954 777.992 947.998 778.167C948.042 778.343 947.998 778.511 947.998 778.657V789.853H946.19V774.623H947.712C947.856 774.616 947.999 774.633 948.137 774.674C948.265 774.738 948.369 774.843 948.429 774.973L953.691 784.343C953.82 784.52 953.933 784.708 954.028 784.905Z" fill="white"/>
<path d="M973.429 784.172V789.873H971.38V774.642H975.881C976.732 774.626 977.581 774.739 978.398 774.978C979.049 775.167 979.652 775.491 980.169 775.929C980.631 776.325 980.99 776.826 981.216 777.39C981.454 778.01 981.571 778.67 981.56 779.334C981.568 780.003 981.441 780.667 981.187 781.286C980.943 781.866 980.57 782.384 980.096 782.798C979.58 783.251 978.974 783.59 978.318 783.792C977.53 784.044 976.707 784.165 975.881 784.15L973.429 784.172ZM973.429 782.535H975.881C976.41 782.546 976.937 782.467 977.44 782.301C977.858 782.164 978.244 781.942 978.574 781.651C978.877 781.372 979.113 781.027 979.262 780.642C979.424 780.233 979.504 779.796 979.496 779.356C979.519 778.935 979.451 778.514 979.295 778.121C979.14 777.729 978.901 777.375 978.596 777.083C977.824 776.483 976.856 776.191 975.881 776.265H973.429V782.535Z" fill="white"/>
<path d="M1000.57 789.875H998.971C998.811 789.879 998.654 789.83 998.525 789.736C998.413 789.641 998.326 789.521 998.268 789.386L996.849 785.731H989.999L988.579 789.386C988.523 789.517 988.435 789.633 988.323 789.722C988.197 789.825 988.039 789.88 987.876 789.875H986.281L992.377 774.645H994.441L1000.57 789.875ZM990.577 784.218H996.27L993.877 778.021C993.691 777.545 993.537 777.056 993.416 776.559C993.343 776.852 993.263 777.115 993.189 777.363C993.116 777.612 993.043 777.824 992.97 778.006L990.577 784.218Z" fill="white"/>
<path d="M1009.29 774.708C1009.41 774.782 1009.51 774.879 1009.59 774.993L1018.42 786.467C1018.42 786.284 1018.42 786.109 1018.38 785.934C1018.34 785.758 1018.38 785.59 1018.38 785.429V774.642H1020.19V789.873H1019.15C1019.01 789.878 1018.87 789.848 1018.74 789.785C1018.61 789.712 1018.5 789.615 1018.41 789.5L1009.63 778.033C1009.63 778.209 1009.63 778.384 1009.63 778.552C1009.63 778.72 1009.63 778.881 1009.63 779.02V789.873H1007.82V774.642H1008.88C1009.02 774.634 1009.16 774.657 1009.29 774.708Z" fill="white"/>
<path d="M1035.1 783.817V789.875H1033.05V783.817L1027.46 774.645H1029.27C1029.43 774.635 1029.58 774.685 1029.71 774.784C1029.82 774.879 1029.91 774.993 1029.98 775.12L1033.47 781.04C1033.6 781.275 1033.72 781.519 1033.83 781.77C1033.92 781.99 1034.01 782.209 1034.09 782.421C1034.17 782.202 1034.25 781.982 1034.35 781.763C1034.44 781.51 1034.56 781.265 1034.7 781.032L1038.18 775.113C1038.25 774.993 1038.34 774.885 1038.44 774.791C1038.56 774.685 1038.71 774.63 1038.87 774.637H1040.7L1035.1 783.817Z" fill="white"/>
<path d="M953.025 749.085C953.911 749.194 954.796 749.289 955.689 749.362C969.311 743.284 980.835 733.329 988.818 720.743C996.802 708.157 1000.89 693.498 1000.57 678.603L985.571 663.613C988.622 679.473 987.194 695.867 981.446 710.962C975.698 726.057 965.858 739.257 953.025 749.085Z" fill="white"/>
<path d="M947.668 748.392L948.078 748.473C961.788 738.676 972.24 724.999 978.083 709.208C983.927 693.418 984.893 676.24 980.858 659.895L959.48 638.555C968.126 656.102 971.605 675.739 969.514 695.183C967.423 714.627 959.848 733.079 947.668 748.392Z" fill="white"/>
<path d="M1020.17 696.195C1016.53 712.562 1007.72 727.324 995.019 738.292C991.309 741.512 987.308 744.382 983.068 746.864C993.408 743.829 1002.91 738.464 1010.85 731.182C1018.79 723.9 1024.94 714.896 1028.84 704.863L1020.17 696.195Z" fill="white"/>
<path d="M1016.76 693.783L1004.42 681.461C1004.19 695.515 1000.19 709.249 992.841 721.237C985.492 733.224 975.062 743.027 962.635 749.626H962.693C965.462 749.626 968.228 749.462 970.978 749.136C982.594 744.404 992.854 736.871 1000.84 727.212C1008.83 717.553 1014.3 706.068 1016.76 693.783Z" fill="white"/>
<path d="M949.483 629.552L934.737 614.797C908.588 624.89 889.911 650.308 889.911 679.841C889.911 712.437 912.598 739.997 942.999 747.532C971.322 713.27 972.844 665.225 949.483 629.552Z" fill="white"/>
<path d="M1050.79 691.534C1050.79 653.187 1019.37 621.813 980.967 621.813C972.42 621.804 963.946 623.38 955.975 626.461L1046.14 716.5C1049.22 708.536 1050.8 700.072 1050.79 691.534Z" fill="white"/>
<path d="M128.176 434.28C129.011 435.313 129.459 436.606 129.442 437.934C129.484 438.804 129.329 439.672 128.99 440.474C128.65 441.276 128.134 441.992 127.48 442.568C126.17 443.693 124.275 444.263 121.787 444.263H111.79V421.008H121.589C123.946 421.008 125.756 421.522 127.019 422.55C127.656 423.082 128.159 423.756 128.488 424.518C128.817 425.279 128.963 426.107 128.915 426.935C128.967 428.217 128.565 429.477 127.78 430.494C127.018 431.417 125.966 432.056 124.794 432.307C126.12 432.543 127.318 433.243 128.176 434.28ZM116.466 430.772H120.616C121.566 430.841 122.509 430.566 123.272 429.997C123.578 429.723 123.818 429.383 123.975 429.004C124.132 428.624 124.202 428.215 124.18 427.805C124.215 427.381 124.155 426.956 124.004 426.559C123.854 426.162 123.616 425.803 123.309 425.51C122.52 424.923 121.545 424.642 120.564 424.72H116.444L116.466 430.772ZM123.726 439.688C124.062 439.398 124.326 439.033 124.498 438.624C124.669 438.214 124.743 437.77 124.714 437.327C124.74 436.879 124.662 436.432 124.487 436.018C124.312 435.605 124.044 435.238 123.704 434.945C122.883 434.334 121.871 434.036 120.85 434.104H116.459V440.492H120.85C121.868 440.558 122.877 440.269 123.704 439.673L123.726 439.688Z" fill="white"/>
<path d="M148.155 444.27L142.71 435.208H140.661V444.27H135.984V421.008H144.884C147.591 421.008 149.655 421.666 151.075 422.981C152.313 424.245 153.06 425.908 153.181 427.672C153.301 429.436 152.788 431.186 151.734 432.606C150.641 433.871 149.144 434.721 147.496 435.011L153.3 444.307L148.155 444.27ZM140.661 432.014H144.488C147.152 432.014 148.484 430.838 148.484 428.484C148.512 428.005 148.439 427.525 148.272 427.074C148.104 426.624 147.845 426.213 147.511 425.868C146.665 425.172 145.581 424.834 144.488 424.925H140.661V432.014Z" fill="white"/>
<path d="M173.821 439.592H164.483L162.836 444.269H157.94L166.495 421.27H171.845L180.393 444.269H175.438L173.821 439.592ZM172.577 436.062L169.137 426.239L165.705 436.062H172.577Z" fill="white"/>
<path d="M205.898 444.27H201.243L190.814 428.433V444.248H186.167V421.008H190.814L201.243 436.955V421.008H205.898V444.27Z" fill="white"/>
<path d="M232.456 438.698C231.494 440.45 230.032 441.877 228.255 442.798C226.216 443.824 223.952 444.327 221.669 444.26H213.421V421.004H221.705C223.987 420.948 226.249 421.45 228.292 422.466C230.068 423.363 231.532 424.774 232.493 426.515C233.451 428.408 233.95 430.5 233.95 432.621C233.95 434.742 233.451 436.834 232.493 438.727L232.456 438.698ZM227.128 438.135C227.839 437.407 228.389 436.539 228.745 435.586C229.1 434.634 229.252 433.617 229.192 432.603C229.192 430.206 228.504 428.349 227.128 427.034C225.753 425.718 223.801 425.058 221.274 425.053H218.046V440.123H221.274C223.806 440.123 225.753 439.451 227.128 438.135Z" fill="white"/>
<path d="M79.7346 420.054C70.4816 420.049 61.3938 417.606 53.3881 412.973L63.5828 395.432C68.4996 398.277 74.0815 399.775 79.7639 399.774C88.3279 399.756 96.5358 396.35 102.589 390.3C108.643 384.251 112.049 376.052 112.06 367.5C112.051 358.941 108.642 350.736 102.582 344.684C96.5215 338.633 88.305 335.228 79.7346 335.219C74.0442 335.216 68.4542 336.717 63.5315 339.567L53.3369 322.027C61.3428 317.394 70.4305 314.952 79.6834 314.945C93.6382 314.961 107.017 320.504 116.884 330.357C126.752 340.211 132.302 353.572 132.318 367.507C132.298 381.431 126.753 394.78 116.897 404.629C107.041 414.479 93.678 420.025 79.7346 420.054Z" fill="white"/>
<path d="M58.4524 425.682C70.283 425.682 79.8736 416.104 79.8736 404.29C79.8736 392.476 70.283 382.898 58.4524 382.898C46.6218 382.898 37.0312 392.476 37.0312 404.29C37.0312 416.104 46.6218 425.682 58.4524 425.682Z" fill="white"/>
<path d="M57.0988 456.679C43.1674 456.663 29.8109 451.13 19.9599 441.292C10.1089 431.455 4.56774 418.117 4.55225 404.205C4.56774 390.292 10.1089 376.954 19.9599 367.117C29.8109 357.28 43.1674 351.746 57.0988 351.731C64.8501 351.72 72.5071 353.426 79.5182 356.727C86.5292 360.028 92.7196 364.842 97.6431 370.82L81.9816 383.734C78.9558 380.071 75.1553 377.123 70.8531 375.101C66.5508 373.079 61.8536 372.034 57.0988 372.041C48.5581 372.06 40.3733 375.459 34.3376 381.493C28.3018 387.528 24.9072 395.705 24.8976 404.234C24.9169 412.763 28.3208 420.936 34.3634 426.964C40.406 432.991 48.5947 436.381 57.1354 436.391C61.5357 436.404 65.8913 435.51 69.9289 433.763C73.9666 432.016 77.599 429.455 80.5984 426.239L95.3964 440.125C90.476 445.341 84.5418 449.499 77.9567 452.345C71.3716 455.192 64.2743 456.666 57.0988 456.679Z" fill="white"/>
<path d="M883.119 439.532C883.87 440.451 884.269 441.606 884.247 442.792C884.286 443.563 884.149 444.333 883.847 445.045C883.546 445.756 883.087 446.39 882.505 446.899C881.341 447.9 879.665 448.404 877.455 448.404H868.563V427.766H877.257C879.35 427.766 880.956 428.224 882.073 429.14C882.634 429.609 883.078 430.201 883.37 430.871C883.662 431.541 883.794 432.269 883.756 432.998C883.805 434.137 883.447 435.256 882.746 436.156C882.071 436.976 881.137 437.543 880.097 437.763C881.285 437.971 882.358 438.599 883.119 439.532ZM872.713 436.419H876.43C877.279 436.488 878.125 436.246 878.809 435.739C879.084 435.492 879.299 435.187 879.438 434.845C879.578 434.503 879.638 434.134 879.614 433.766C879.636 433.397 879.577 433.028 879.44 432.684C879.304 432.34 879.093 432.031 878.823 431.778C878.13 431.245 877.266 430.985 876.394 431.047H872.734L872.713 436.419ZM879.153 444.326C879.451 444.07 879.686 443.747 879.838 443.384C879.99 443.022 880.056 442.629 880.031 442.236C880.054 441.838 879.985 441.441 879.83 441.073C879.675 440.706 879.439 440.379 879.138 440.117C878.407 439.581 877.51 439.322 876.606 439.386H872.713V445.057H876.613C877.519 445.117 878.418 444.858 879.153 444.326Z" fill="white"/>
<path d="M900.845 448.404L896.014 440.365H894.177V448.404H890.05V427.766H897.924C900.325 427.766 902.155 428.35 903.413 429.52C904.514 430.639 905.179 432.114 905.286 433.68C905.393 435.245 904.937 436.797 903.999 438.056C903.025 439.169 901.696 439.912 900.237 440.161L905.36 448.404H900.845ZM894.177 437.53H897.573C899.93 437.53 901.115 436.484 901.115 434.402C901.139 433.976 901.075 433.549 900.926 433.15C900.778 432.75 900.548 432.385 900.252 432.078C899.501 431.463 898.54 431.164 897.573 431.244H894.177V437.53Z" fill="white"/>
<path d="M923.612 444.254H915.328L913.864 448.405H909.473L917.077 428H921.79L929.372 448.405H924.981L923.612 444.254ZM922.5 441.126L919.456 432.414L916.411 441.126H922.5Z" fill="white"/>
<path d="M952.067 448.404H947.939L938.689 434.372V448.404H934.561V427.766H938.689L947.939 441.915V427.766H952.067V448.404Z" fill="white"/>
<path d="M975.625 443.464C974.772 445.025 973.472 446.298 971.892 447.118C970.092 448.024 968.096 448.47 966.082 448.419H958.763V427.766H966.082C968.093 427.714 970.087 428.151 971.892 429.037C973.471 429.834 974.772 431.087 975.625 432.633C976.472 434.313 976.913 436.168 976.913 438.049C976.913 439.929 976.472 441.784 975.625 443.464ZM970.897 442.967C972.077 441.596 972.726 439.849 972.726 438.041C972.726 436.234 972.077 434.486 970.897 433.116C969.682 431.946 967.97 431.362 965.73 431.362H962.862V444.721H965.73C967.955 444.721 969.682 444.137 970.897 442.967Z" fill="white"/>
<path d="M926.196 313.012C926.196 313.012 979.482 333.102 978.355 362.168V411.324C978.355 411.324 925.069 391.241 926.203 362.168L926.196 313.012Z" fill="white"/>
<path d="M1025.82 399.825C1035.88 392.903 1047.51 388.617 1059.66 387.364V371.973C1045.66 377.359 1033.79 387.132 1025.82 399.825Z" fill="white"/>
<path d="M1019.77 404.451C1028.01 387.895 1042.28 375.118 1059.66 368.742V324.402C1059.66 324.402 983.785 353.007 985.395 394.402V464.409C985.395 464.409 988.776 463.13 994.097 460.755C994.097 458.504 994.148 456.245 994.338 453.98C995.112 444.461 997.757 435.187 1002.12 426.689C1006.48 418.191 1012.48 410.634 1019.77 404.451Z" fill="white"/>
<path d="M1012.55 430.465C1012.96 425.611 1013.84 420.81 1015.2 416.133C1006.04 426.911 1000.49 440.287 999.344 454.378C999.234 455.715 999.176 457.045 999.139 458.375C1003.45 456.3 1008.46 453.72 1013.73 450.687C1012.39 444.035 1012 437.227 1012.55 430.465Z" fill="white"/>
<path d="M1015.58 430.711C1015.07 436.843 1015.38 443.014 1016.51 449.063C1037.24 436.639 1060.54 417.542 1059.64 394.403V392.438C1044.83 394.089 1030.98 400.552 1020.2 410.833C1017.68 417.193 1016.12 423.893 1015.58 430.711Z" fill="white"/>
<path d="M509.417 750.219H516.545C519.76 750.219 522.141 750.706 523.688 751.68C525.234 752.655 526.007 754.211 526.007 756.35C526.006 756.663 525.987 756.975 525.949 757.286C525.884 757.692 525.781 758.091 525.642 758.477C525.487 758.949 525.262 759.395 524.976 759.8C524.63 760.263 524.213 760.668 523.739 760.999C523.153 761.417 522.503 761.738 521.814 761.949C523.309 762.156 524.672 762.915 525.634 764.075C526.515 765.214 526.975 766.621 526.937 768.058C526.996 769.042 526.829 770.027 526.448 770.936C526.068 771.846 525.484 772.656 524.741 773.306C523.278 774.539 521.082 775.157 518.155 775.162H509.417V750.219ZM512.344 760.947H517.701C519.08 761.037 520.454 760.719 521.653 760.034C522.536 759.43 522.98 758.351 522.985 756.796C522.99 755.242 522.458 754.165 521.39 753.566C520.326 752.972 518.674 752.677 516.435 752.682H512.344V760.947ZM512.344 763.293V772.794H517.562C519.684 772.794 521.272 772.402 522.326 771.618C522.872 771.186 523.302 770.627 523.579 769.989C523.856 769.352 523.971 768.656 523.914 767.963C523.914 766.239 523.344 765.021 522.202 764.309C521.06 763.598 519.277 763.252 516.852 763.271L512.344 763.293Z" fill="white"/>
<path d="M556.606 775.17H553.225L549.778 767.343C548.849 765.238 548.248 763.974 547.992 763.543C547.165 763.601 546.192 763.63 545.065 763.63L540.593 763.492V775.185H537.6V749.949H545.592C546.514 749.949 547.334 749.949 548.044 750.015C548.752 750.059 549.458 750.139 550.159 750.256C550.786 750.355 551.402 750.519 551.996 750.746C552.515 750.954 553.007 751.227 553.459 751.557C553.9 751.876 554.271 752.282 554.55 752.748C554.846 753.262 555.066 753.816 555.201 754.393C555.367 755.097 555.446 755.818 555.435 756.541C555.475 757.994 555.041 759.42 554.198 760.605C553.326 761.771 552.082 762.606 550.671 762.973C550.671 762.973 550.788 763.192 551.015 763.579C551.242 763.967 551.505 764.427 551.813 764.983C552.12 765.538 552.361 766.006 552.544 766.378L556.606 775.17ZM540.593 752.514V760.963H543.455C544.919 760.963 546.016 760.963 546.807 760.963C548.958 760.963 550.456 760.605 551.3 759.889C551.752 759.452 552.1 758.921 552.319 758.333C552.538 757.745 552.623 757.115 552.566 756.49C552.613 755.925 552.528 755.357 552.317 754.831C552.106 754.304 551.776 753.834 551.351 753.457C550.542 752.795 549.185 752.461 547.282 752.456L540.593 752.514Z" fill="white"/>
<path d="M583.589 775.17L580.662 767.255H570.701L567.679 775.17H564.708L574.302 750.168H577.288L586.597 775.17H583.589ZM579.725 764.807C577.349 757.912 576.037 754.039 575.788 753.186L571.682 764.807H579.725Z" fill="white"/>
<path d="M616.237 775.169H612.929L599.975 755.532L599.134 754.37C599.222 756.733 599.265 758.84 599.265 760.692V775.169H596.528V750.219H599.792L612.797 769.856L613.661 771.018C613.578 767.428 613.536 765.352 613.536 764.792V750.219H616.259L616.237 775.169Z" fill="white"/>
<path d="M649.573 762.667C649.573 766.73 648.419 769.829 646.111 771.963C643.803 774.097 640.583 775.167 636.451 775.171H629.037V750.221H635.96C637.85 750.194 639.733 750.44 641.552 750.952C643.112 751.388 644.568 752.133 645.833 753.144C647.078 754.184 648.035 755.525 648.614 757.039C649.293 758.836 649.619 760.747 649.573 762.667ZM646.448 762.755C646.448 759.271 645.548 756.735 643.747 755.147C641.947 753.558 639.324 752.764 635.88 752.764H631.957V772.657H636.348C639.642 772.657 642.144 771.829 643.857 770.173C645.57 768.516 646.433 766.043 646.448 762.755Z" fill="white"/>
<path d="M537.732 655.497H553.247V631.898H453.855V731.153H553.247V699.011H537.732V655.497Z" fill="white"/>
<path d="M590.308 655.496H562.256V699.003H590.308V655.496Z" fill="white"/>
<path d="M453.855 741.363V776.312H488.823V741.4L453.855 741.363ZM479.953 767.425H462.725L479.953 750.214V767.425Z" fill="white"/>
</g>
<defs>
<clipPath id="clip0_82_488">
<rect width="1063" height="791" fill="white"/>
</clipPath>
</defs>
</svg>
